# xmcd CD database file
#
# Track frame offsets:
#	150
#	15334
#	35410
#	62860
#	106852
#	121575
#	150167
#	178055
#	228465
#	243725
#
# Disc length: 3547 seconds
#
# Revision: 0
# Processed by: cddbd v1.5.1PL0 Copyright (c) Steve Scherf et al.
# Submitted via: CDex 1.51
#
DISCID=700dd90a
DTITLE=Jeff Terra - Groovin' In The Galaxy
DYEAR=2000
DGENRE=Blues
TTITLE0=601 1/2 North Popular
TTITLE1=Heartbreak
TTITLE2=Grooves Blues
TTITLE3=Mister Magic
TTITLE4=Swooshy
TTITLE5=Louie's Jump
TTITLE6=The Freeze
TTITLE7=Blues For Buddy
TTITLE8=Jam
TTITLE9=Change For A Life
EXTD=YEAR: 2000
EXTT0=
EXTT1=
EXTT2=
EXTT3=
EXTT4=
EXTT5=
EXTT6=
EXTT7=
EXTT8=
EXTT9=
PLAYORDER=
